<svg width="22" height="24" viewBox="0 0 22 24" fill="none" xmlns="http://www.w3.org/2000/svg">
<path fill-rule="evenodd" clip-rule="evenodd" d="M8.50004 24C3.8056 24 4.11272e-06 20.1999 0 15.5121H2C2 19.0969 4.91017 22.0029 8.50003 22.0028L9 22.0028C9.55228 22.0028 10 22.4499 10 23.0014C10 23.5529 9.55229 24 9 24L8.50004 24Z" fill="#818C99"/>
<path fill-rule="evenodd" clip-rule="evenodd" d="M12.5 9.02144C12.5 8.46995 12.9477 8.02287 13.5 8.02287C15.6846 8.02287 17.6021 9.17397 18.6513 10.8998C18.9379 11.3712 18.7875 11.9854 18.3154 12.2716C17.8433 12.5578 17.2283 12.4076 16.9417 11.9362C16.2457 10.7915 14.968 10.02 13.5 10.02C12.9477 10.02 12.5 9.57294 12.5 9.02144Z" fill="#818C99"/>
<path fill-rule="evenodd" clip-rule="evenodd" d="M14 21.9972L19.9985 18.5134C19.999 18.5132 19.9994 18.5129 19.9998 18.5127C19.9999 18.5112 20 18.5096 20 18.5079C20 18.5061 19.9999 18.5045 19.9998 18.503C19.9994 18.5028 19.999 18.5026 19.9985 18.5023L14 15.0185C14 15.0191 14 15.0198 14 15.0205V21.9952C14 21.9959 14 21.9966 14 21.9972ZM21.0041 20.2398C22.332 19.4686 22.332 17.5472 21.004 16.7759L14.9994 13.2886C13.6676 12.5151 12 13.478 12 15.0205V21.9952C12 23.5377 13.6676 24.5006 14.9994 23.7271L21.0041 20.2398Z" fill="#818C99"/>
<path fill-rule="evenodd" clip-rule="evenodd" d="M12.1385 2.03105C11.3826 1.8633 10.6345 2.34265 10.4722 3.09878L9.4778 7.7328C9.36208 8.27205 8.8305 8.61553 8.29047 8.49998C7.75045 8.38442 7.40648 7.85359 7.5222 7.31434L8.51662 2.68032C8.91156 0.839904 10.7324 -0.32684 12.5724 0.0814659C14.2921 0.463078 15.4337 2.09489 15.2009 3.8386L14.4912 9.1534C14.4182 9.70006 13.9153 10.0841 13.3678 10.0112C12.8204 9.93835 12.4358 9.43611 12.5088 8.88945L13.2184 3.57465C13.3141 2.85826 12.8451 2.18783 12.1385 2.03105Z" fill="#818C99"/>
<path d="M3.72343 4.05468C3.65207 3.23526 4.29894 2.53071 5.12263 2.53071C5.7671 2.53071 6.32887 2.9687 6.48518 3.59303L7.52985 7.76575C7.6638 8.30078 8.20673 8.62608 8.74253 8.49232C9.27832 8.35856 9.60408 7.81641 9.47013 7.28138L8.42546 3.10865C8.04657 1.59526 6.68484 0.533569 5.12263 0.533569C3.126 0.533569 1.55798 2.24141 1.73095 4.22769L2.47064 12.722L4.37471 11.5336L3.72343 4.05468Z" fill="#818C99"/>
<path fill-rule="evenodd" clip-rule="evenodd" d="M7.97244 12.7518C7.82149 12.0735 7.19734 11.6068 6.50305 11.653L5.26718 11.7353C3.42864 11.8577 2 13.3826 2 15.2225V15.5121C2 16.0636 1.55228 16.5107 1 16.5107C0.447715 16.5107 0 16.0636 0 15.5121V15.2225C0 12.3311 2.24501 9.93491 5.13415 9.74257L6.37001 9.6603C8.04968 9.54848 9.55963 10.6776 9.92481 12.3186C10.3488 14.2238 9.08517 16.0942 7.15726 16.4151L6.6644 16.4971C6.11963 16.5878 5.6044 16.2203 5.51361 15.6763C5.42281 15.1323 5.79083 14.6178 6.3356 14.5272L6.82846 14.4451C7.62537 14.3125 8.14769 13.5394 7.97244 12.7518Z" fill="#818C99"/>
</svg>
