<svg width="17" height="11" viewBox="0 0 17 11" fill="none" xmlns="http://www.w3.org/2000/svg">
<path opacity="0.75" fill-rule="evenodd" clip-rule="evenodd" d="M5.33328 5C6.46618 5 7.38457 4.16667 7.38457 2.5C7.38457 0.833333 6.46618 0 5.33328 0C4.20039 0 3.282 0.833333 3.282 2.5C3.282 4.16667 4.20039 5 5.33328 5ZM0.205078 10.1C0.205078 8.6 0.717899 6 5.33328 6C9.94867 6 10.4615 8.7 10.4615 10.1C10.4615 10.8 10.2564 11 9.02559 11H1.74354C0.51277 11 0.205078 10.8 0.205078 10.1ZM10.0846 6.09281C11.9592 7.35987 12.418 9.46984 12.4983 11H15.1794C16.4102 11 16.6153 10.8 16.6153 10.1C16.6153 8.7 16.1025 6 11.4871 6C10.9697 6 10.5039 6.03267 10.0846 6.09281ZM13.5384 2.5C13.5384 4.16667 12.62 5 11.4871 5C10.3542 5 9.43585 4.16667 9.43585 2.5C9.43585 0.833333 10.3542 0 11.4871 0C12.62 0 13.5384 0.833333 13.5384 2.5Z" fill="#9A5DFF"/>
</svg>
