<svg width="21" height="15" viewBox="0 0 21 15" fill="none" xmlns="http://www.w3.org/2000/svg">
<path fill-rule="evenodd" clip-rule="evenodd" d="M10.5 10.7812C12.3122 10.7812 13.7812 9.31218 13.7812 7.5C13.7812 5.68782 12.3122 4.21875 10.5 4.21875C8.68782 4.21875 7.21875 5.68782 7.21875 7.5C7.21875 9.31218 8.68782 10.7812 10.5 10.7812ZM11.8125 7.5C11.8125 8.22487 11.2249 8.8125 10.5 8.8125C9.77513 8.8125 9.1875 8.22487 9.1875 7.5C9.1875 6.77513 9.77513 6.1875 10.5 6.1875C11.2249 6.1875 11.8125 6.77513 11.8125 7.5Z" fill="#B8C1CC"/>
<path fill-rule="evenodd" clip-rule="evenodd" d="M10.5 14.3906C12.9408 14.3906 15.2165 13.4857 16.8853 12.3077C17.7249 11.715 18.467 11.0143 19.0175 10.2523C19.5468 9.51935 20.0156 8.56425 20.0156 7.5C20.0156 6.43575 19.5468 5.48065 19.0175 4.7477C18.467 3.98568 17.7249 3.28499 16.8853 2.69238C15.2165 1.51433 12.9408 0.609375 10.5 0.609375C8.05924 0.609375 5.78354 1.51433 4.11466 2.69238C3.27513 3.28499 2.53294 3.98568 1.98258 4.7477C1.45324 5.48065 0.984375 6.43575 0.984375 7.5C0.984375 8.56425 1.45324 9.51935 1.98258 10.2523C2.53294 11.0143 3.27513 11.715 4.11466 12.3077C5.78354 13.4857 8.05924 14.3906 10.5 14.3906ZM18.0469 7.5C18.0469 9.46875 14.4375 12.4219 10.5 12.4219C6.5625 12.4219 2.95312 9.46875 2.95312 7.5C2.95312 5.53125 6.5625 2.57812 10.5 2.57812C14.4375 2.57812 18.0469 5.53125 18.0469 7.5Z" fill="#B8C1CC"/>
</svg>
