<svg width="23" height="23" viewBox="0 0 23 23" fill="none" xmlns="http://www.w3.org/2000/svg">
<path d="M12.6295 0.690991L21.5662 9.18086C22.1624 9.74724 22.5 10.5335 22.5 11.3559V19.9972C22.5 21.3779 21.3807 22.4972 20 22.4972H14C13.4477 22.4972 13 22.0495 13 21.4972V15.9971C13 15.1687 12.3284 14.4971 11.5 14.4971C10.6716 14.4971 10 15.1687 10 15.9971V21.4972C10 22.0495 9.55228 22.4972 9 22.4972H3C1.61929 22.4972 0.5 21.3779 0.5 19.9972V11.3559C0.5 10.5335 0.83756 9.74724 1.43375 9.18086L10.3705 0.690991C11.0034 0.0896566 11.9966 0.0896566 12.6295 0.690991ZM11.5 2.37654L2.81125 10.6309C2.61252 10.8196 2.5 11.0817 2.5 11.3559V19.9972C2.5 20.2734 2.72386 20.4972 3 20.4972H8V15.9971C8 14.0641 9.567 12.4971 11.5 12.4971C13.433 12.4971 15 14.0641 15 15.9971V20.4972H20C20.2761 20.4972 20.5 20.2734 20.5 19.9972V11.3559C20.5 11.0817 20.3875 10.8196 20.1887 10.6309L11.5 2.37654Z" fill="#6829CF"/>
</svg>
