<svg width="17" height="14" viewBox="0 0 17 14" fill="none" xmlns="http://www.w3.org/2000/svg">
<path opacity="0.75" fill-rule="evenodd" clip-rule="evenodd" d="M9.07707 0.297872C8.66503 -0.0992908 8.04697 -0.0992908 7.73794 0.297872L0.424271 7.24823C0.0122331 7.64539 0.218252 7.94326 0.733299 7.94326L2.25636 8V13C2.25636 14 2.25636 14 3.282 14H5.85892C6.13507 14 6.35892 13.7761 6.35892 13.5V10C6.35892 8.89543 7.25435 8 8.35892 8H8.46149C9.56606 8 10.4615 8.89543 10.4615 10V13.5C10.4615 13.7761 10.6853 14 10.9615 14H13.5384C14.5641 14 14.5641 14 14.5641 13V8L16.1847 7.94326C16.5968 7.84397 16.8028 7.5461 16.3907 7.24823L9.07707 0.297872Z" fill="#9A5DFF"/>
</svg>
