<svg width="20" height="20" viewBox="0 0 20 20" fill="none" xmlns="http://www.w3.org/2000/svg">
<path fill-rule="evenodd" clip-rule="evenodd" d="M9.50492 2.53291C9.6465 1.87231 10.3471 1.49693 10.9752 1.74513C11.3925 1.91002 11.6667 2.31326 11.6667 2.76209V6.66162C11.6667 7.12205 12.0398 7.49527 12.5 7.49527H13.75C15.2643 7.49527 16.3863 7.91935 17.1274 8.64012C17.8645 9.35697 18.3333 10.473 18.3333 12.0803V12.914C18.3333 14.5213 17.8645 15.6374 17.1274 16.3543C16.3863 17.075 15.2643 17.4991 13.75 17.4991H10.8333H10.812H10.7907H10.7695H10.7483H10.7272H10.7061H10.6851H10.664H10.6431H10.6222H10.6012H10.5804H10.5597H10.5388H10.5182H10.4975H10.4768H10.4563H10.4357H10.4152H10.3948H10.3744H10.354H10.3337H10.3134H10.2932H10.273H10.2528H10.2327H10.2127H10.1927H10.1727H10.1528H10.1328H10.113H10.0932H10.0734H10.0538H10.034H10.0144H9.99483H9.97525H9.95575H9.93625H9.91683H9.8975H9.87817H9.85883H9.83958H9.82042H9.80125H9.78217H9.76308H9.744H9.725H9.70608H9.68717H9.66833H9.6495H9.63075H9.612H9.59325H9.57467H9.556H9.5375H9.51892H9.5005H9.482H9.46367H9.44525H9.427H9.40875H9.3905H9.37233H9.35417H9.33608H9.318H9.3H9.28208H9.26417H9.24625H9.22842H9.21067H9.19292H9.17517H9.1575H9.13992H9.12233H9.10475H9.08725H9.06983H9.05242H9.035H9.01775H9.00042H8.98317H8.966H8.94883H8.93175H8.91467H8.89767H8.88067H8.86367H8.84683H8.82992H8.81317H8.79633H8.77967H8.76292H8.74633H8.72967H8.71317H8.69658H8.68017H8.66375H8.64733H8.631H8.61467H8.59842H8.58217H8.566H8.54992H8.53375H8.51775H8.50175H8.48575H8.46983H8.454H8.43817H8.42233H8.40658H8.39083H8.37517H8.35958H8.344H8.32842H8.313H8.2975H8.28208H8.26675H8.25142H8.23608H8.22083H8.20567H8.1905H8.17542H8.16033H8.14525H8.13025H8.11533H8.10042H8.08558H8.07075H8.056H8.04125H8.0265H8.01192H7.99725H7.98267H7.96817H7.95367H7.93925H7.92483H7.9105H7.89617H7.88192H7.86767H7.8535H7.83933H7.82525H7.81117H7.79717H7.78317H7.76925H7.75533H7.7415H7.72767H7.71392H7.70025H7.6865H7.67292H7.65933H7.64575H7.63225H7.61875H7.60533H7.59192H7.57858H7.56533H7.552H7.53883H7.52567H7.5125H7.49942H7.48633H7.47333H7.46042H7.44742H7.43458H7.42175H7.40892H7.39617H7.3835H7.37075H7.35817H7.34558H7.333H7.3205H7.30808H7.29567H7.28325H7.27092H7.25858H7.24633H7.23417H7.222H7.20983H7.19775H7.18575H7.17375H7.16175H7.14983H7.138H7.12617H7.11433H7.10258H7.09092H7.07925H7.06758H7.056H7.0445H7.033H7.0215H7.01008H6.99875H6.98742H6.97608H6.96483H6.95367H6.9425H6.93133H6.92025H6.90925H6.89825H6.88725H6.87633H6.8655H6.85467H6.84383H6.83308H6.82242H6.81175H6.80108H6.79058H6.78H6.7695H6.75908H6.74867H6.73825H6.72792H6.71767H6.70742H6.69717H6.687H6.67692H6.66683H6.65677H6.64677H6.63683H6.62691H6.61703H6.6072H6.59741H6.58766H6.57796H6.56829H6.55867H6.54908H6.53954H6.53004H6.52058H6.51117H6.50179H6.49246H6.48317H6.47392H6.46471H6.45554H6.44642H6.43733H6.42828H6.41928H6.41033H6.40141H6.39253H6.38369H6.3749H6.36615H6.35743H6.34877H6.34014H6.33155H6.32301H6.3145H6.30604H6.29762H6.28923H6.2809H6.2726H6.26434H6.25613H6.24796H6.2453C6.25002 17.3192 6.25001 17.1187 6.25 16.8993V16.8738V10.6215V10.5959C6.25001 10.3716 6.25002 10.1669 6.24497 9.98413L7.66917 8.84428C8.0465 8.54233 8.30792 8.11926 8.40917 7.64666L9.50492 2.53291ZM5.66676 8.31166L6.62804 7.54237C6.70525 7.4806 6.75875 7.39398 6.7795 7.2972L7.87525 2.18345C8.23267 0.515525 10.0016 -0.43225 11.5875 0.19442C12.6411 0.610744 13.3333 1.62887 13.3333 2.76209V5.82797H13.75C15.569 5.82797 17.1553 6.34179 18.2892 7.44467C19.4272 8.55142 20 10.1447 20 12.0803V12.914C20 14.8496 19.4272 16.443 18.2892 17.5497C17.1553 18.6526 15.569 19.1664 13.75 19.1664H10.8333H10.812H10.7907H10.7695H10.7483H10.7272H10.7061H10.6851H10.664H10.6431H10.6222H10.6012H10.5804H10.5597H10.5388H10.5182H10.4975H10.4768H10.4563H10.4357H10.4152H10.3948H10.3744H10.354H10.3337H10.3134H10.2932H10.273H10.2528H10.2327H10.2127H10.1927H10.1727H10.1528H10.1328H10.113H10.0932H10.0734H10.0538H10.034H10.0144H9.99483H9.97525H9.95575H9.93625H9.91683H9.8975H9.87817H9.85883H9.83958H9.82042H9.80125H9.78217H9.76308H9.744H9.725H9.70608H9.68717H9.66833H9.6495H9.63075H9.612H9.59325H9.57467H9.556H9.5375H9.51892H9.5005H9.482H9.46367H9.44525H9.427H9.40875H9.3905H9.37233H9.35417H9.33608H9.318H9.3H9.28208H9.26417H9.24625H9.22842H9.21067H9.19292H9.17517H9.1575H9.13992H9.12233H9.10475H9.08725H9.06983H9.05242H9.035H9.01775H9.00042H8.98317H8.966H8.94883H8.93175H8.91467H8.89767H8.88067H8.86367H8.84683H8.82992H8.81317H8.79633H8.77967H8.76292H8.74633H8.72967H8.71317H8.69658H8.68017H8.66375H8.64733H8.631H8.61467H8.59842H8.58217H8.566H8.54992H8.53375H8.51775H8.50175H8.48575H8.46983H8.454H8.43817H8.42233H8.40658H8.39083H8.37517H8.35958H8.344H8.32842H8.313H8.2975H8.28208H8.26675H8.25142H8.23608H8.22083H8.20567H8.1905H8.17542H8.16033H8.14525H8.13025H8.11533H8.10042H8.08558H8.07075H8.056H8.04125H8.0265H8.01192H7.99725H7.98267H7.96817H7.95367H7.93925H7.92483H7.9105H7.89617H7.88192H7.86767H7.8535H7.83933H7.82525H7.81117H7.79717H7.78317H7.76925H7.75533H7.7415H7.72767H7.71392H7.70025H7.6865H7.67292H7.65933H7.64575H7.63225H7.61875H7.60533H7.59192H7.57858H7.56533H7.552H7.53883H7.52567H7.5125H7.49942H7.48633H7.47333H7.46042H7.44742H7.43458H7.42175H7.40892H7.39617H7.3835H7.37075H7.35817H7.34558H7.333H7.3205H7.30808H7.29567H7.28325H7.27092H7.25858H7.24633H7.23417H7.222H7.20983H7.19775H7.18575H7.17375H7.16175H7.14983H7.138H7.12617H7.11433H7.10258H7.09092H7.07925H7.06758H7.056H7.0445H7.033H7.0215H7.01008H6.99875H6.98742H6.97608H6.96483H6.95367H6.9425H6.93133H6.92025H6.90925H6.89825H6.88725H6.87633H6.8655H6.85467H6.84383H6.83308H6.82242H6.81175H6.80108H6.79058H6.78H6.7695H6.75908H6.74867H6.73825H6.72792H6.71767H6.70742H6.69717H6.687H6.67692H6.66683H6.65677H6.64677H6.63683H6.62691H6.61703H6.6072H6.59741H6.58766H6.57796H6.56829H6.55867H6.54908H6.53954H6.53004H6.52058H6.51117H6.50179H6.49246H6.48317H6.47392H6.46471H6.45554H6.44642H6.43733H6.42828H6.41928H6.41033H6.40141H6.39253H6.38369H6.3749H6.36615H6.35743H6.34877H6.34014H6.33155H6.32301H6.3145H6.30604H6.29762H6.28923H6.2809H6.2726H6.26434H6.25613H6.24796H6.23983H6.23173H6.22368H6.21568H6.20771H6.19978H6.1919H6.18406H6.17626H6.16849H6.16078H6.1531H6.14546H6.13787H6.13031H6.1228H6.11533H6.1079H6.10051H6.09316H6.08586H6.07859H6.07137H6.06418H6.05704H6.04994H6.04288H6.03587H6.02889H6.02195H6.01506H6.00821H6.00139H5.99463H5.98789H5.9812H5.97456H5.96795H5.96138H5.95486H5.94838H5.94193H5.93553H5.92918H5.92286H5.91657H5.91034H5.90415H5.89799H5.89188H5.88581H5.87978H5.87378H5.86783H5.86193H5.85606H5.85023H5.84445H5.83871H5.833H5.82734H5.82172H5.81614H5.8106H5.8051H5.79965H5.79423H5.78886H5.78352H5.77823H5.77298H5.76777H5.76259H5.75747H5.75238H5.74732H5.74232H5.73736H5.73243H5.72754H5.7227H5.7179H5.71314H5.70842H5.70373H5.6991H5.6945H5.68994H5.68543H5.68163C5.43498 19.4555 5.12007 19.6841 4.76053 19.8287C4.50644 19.9308 4.25142 19.9677 4.00092 19.9842C3.76378 20 3.47816 20 3.15059 20H3.125H3.09949C2.77192 20 2.48622 20 2.24908 19.9842C1.99858 19.9677 1.74357 19.9308 1.48947 19.8287C0.888775 19.5872 0.412642 19.1109 0.171267 18.51C0.0691586 18.2558 0.032367 18.0007 0.0157336 17.7501C-1.63727e-05 17.5128 -7.94992e-06 17.2271 3.8341e-07 16.8994V16.8738V10.6215V10.5959C-7.94992e-06 10.2682 -1.63727e-05 9.98246 0.0157336 9.7452C0.032367 9.49461 0.0691586 9.23951 0.171267 8.98533C0.412642 8.38436 0.888775 7.90809 1.48947 7.66659C1.74357 7.56446 1.99858 7.52762 2.24908 7.51103C2.48624 7.49527 2.77189 7.49527 3.0995 7.49527H3.125H3.1505C3.47811 7.49527 3.76377 7.49527 4.00092 7.51103C4.25142 7.52762 4.50644 7.56446 4.76053 7.66659C5.11288 7.80822 5.42237 8.03064 5.66676 8.31166ZM2.11089 9.21367C2.13346 9.20458 2.19146 9.18583 2.35952 9.17466C2.53478 9.16299 2.76453 9.16257 3.125 9.16257C3.48548 9.16257 3.71523 9.16299 3.89049 9.17466C4.05854 9.18583 4.11654 9.20458 4.13911 9.21367C4.31827 9.2857 4.46027 9.42775 4.53226 9.60699C4.54133 9.62958 4.56011 9.6876 4.57127 9.85566C4.58291 10.031 4.58333 10.2608 4.58333 10.6215V16.8738C4.58333 17.2345 4.58291 17.4643 4.57127 17.6396C4.56011 17.8078 4.54133 17.8658 4.53226 17.8883C4.46027 18.0675 4.31827 18.2096 4.13911 18.2816C4.11654 18.2907 4.05854 18.3094 3.89049 18.3206C3.71523 18.3323 3.48548 18.3327 3.125 18.3327C2.76453 18.3327 2.53478 18.3323 2.35952 18.3206C2.19146 18.3094 2.13346 18.2907 2.11089 18.2816C1.93174 18.2096 1.78974 18.0675 1.71775 17.8883C1.70868 17.8658 1.68989 17.8078 1.67873 17.6396C1.6671 17.4643 1.66667 17.2345 1.66667 16.8738V10.6215C1.66667 10.2608 1.6671 10.031 1.67873 9.85566C1.68989 9.6876 1.70868 9.62958 1.71775 9.60699C1.78974 9.42775 1.93174 9.2857 2.11089 9.21367Z" fill="#9A5DFF"/>
</svg>
