<svg width="17" height="12" viewBox="0 0 17 12" fill="none" xmlns="http://www.w3.org/2000/svg">
<path opacity="0.75" fill-rule="evenodd" clip-rule="evenodd" d="M10.4615 11C10.1345 11 9.81351 10.9793 9.50033 10.9394C12.1611 9.94121 14.0512 7.70469 14.0512 5C14.0512 3.63244 13.568 2.38457 12.7463 1.35595C15.0136 2.09302 16.6153 3.89454 16.6153 6C16.6153 7.77641 15.4752 9.33645 13.757 10.2234C13.6828 10.6146 14.0115 11.3087 14.5641 12C12.8733 12 12.0609 11.5771 11.6522 10.9065C11.267 10.9678 10.8689 11 10.4615 11ZM12.5128 5C12.5128 7.76142 9.7576 10 6.35892 10C5.95151 10 5.55334 9.96783 5.16805 9.90645C4.75878 10.5771 3.94457 11 2.25636 11C2.80894 10.3087 3.13759 9.61464 3.06342 9.22337C1.34524 8.33645 0.205078 6.77641 0.205078 5C0.205078 2.23858 2.96025 0 6.35892 0C9.7576 0 12.5128 2.23858 12.5128 5Z" fill="#9A5DFF"/>
</svg>
