<svg width="12" height="15" viewBox="0 0 12 15" fill="none" xmlns="http://www.w3.org/2000/svg">
<path d="M4.54528 0.499962H7.31116C8.16133 0.499962 8.69519 0.603055 9.25382 0.901819C9.79782 1.19275 10.2354 1.63036 10.5264 2.17436C10.8251 2.733 10.9282 3.26686 10.9282 4.11702V10.4543C10.9282 11.3045 10.8251 11.8384 10.5264 12.397C10.2354 12.941 9.79782 13.3786 9.25382 13.6695C8.69519 13.9683 8.16133 14.0714 7.31116 14.0714H4.54528C3.69512 14.0714 3.16126 13.9683 2.60262 13.6695C2.05862 13.3786 1.62101 12.941 1.33008 12.397C1.03132 11.8384 0.928223 11.3045 0.928223 10.4543V4.11702C0.928223 3.26686 1.03132 2.733 1.33008 2.17436C1.62101 1.63036 2.05862 1.19275 2.60262 0.901819C3.16126 0.603055 3.69512 0.499962 4.54528 0.499962Z" fill="white"/>
<path d="M7.31158 2.28568C7.94838 2.28568 8.1793 2.35199 8.4121 2.47649C8.64491 2.601 8.82761 2.7837 8.95212 3.01651C9.07662 3.24931 9.14293 3.48023 9.14293 4.11703V10.4543C9.14293 11.0911 9.07662 11.3221 8.95212 11.5549C8.82761 11.7877 8.64491 11.9704 8.4121 12.0949C8.1793 12.2194 7.94838 12.2857 7.31158 12.2857H4.5457C3.9089 12.2857 3.67798 12.2194 3.44518 12.0949C3.21238 11.9704 3.02967 11.7877 2.90516 11.5549C2.78066 11.3221 2.71436 11.0911 2.71436 10.4543V4.11703C2.71436 3.48023 2.78066 3.24931 2.90516 3.01651C3.02967 2.7837 3.21238 2.601 3.44518 2.47649C3.67798 2.35199 3.9089 2.28568 4.5457 2.28568H7.31158ZM7.71436 4.78568H4.14293C3.94568 4.78568 3.78578 4.94558 3.78578 5.14283V9.42854C3.78578 9.62578 3.94568 9.78568 4.14293 9.78568H7.71436C7.9116 9.78568 8.0715 9.62578 8.0715 9.42854V5.14283C8.0715 4.94558 7.9116 4.78568 7.71436 4.78568Z" fill="#4BB34B"/>
</svg>
