<svg width="14" height="17" viewBox="0 0 14 17" fill="none" xmlns="http://www.w3.org/2000/svg">
<path opacity="0.75" fill-rule="evenodd" clip-rule="evenodd" d="M13.5641 11.0741V0L3.30767 2.84669V11.5556C3.30767 11.6966 3.35155 11.8272 3.42645 11.9476C3.00264 11.9074 2.54439 11.9605 2.09327 12.1206C0.76256 12.5928 -0.00208756 13.8171 0.385384 14.8551C0.772856 15.893 2.16572 16.3516 3.49643 15.8794C4.82715 15.4072 5.59179 14.1829 5.20432 13.1449C5.17669 13.0709 5.14394 12.9999 5.10647 12.9319C5.25763 12.9773 5.35418 13 5.35418 13V5.77778L11.5116 3.85185V9.91779C11.0888 9.90075 10.6373 9.97738 10.1985 10.159C8.89494 10.6985 8.19706 11.9601 8.63971 12.9768C9.08237 13.9936 10.4979 14.3805 11.8015 13.841C13.105 13.3015 13.8029 12.0399 13.3602 11.0232C13.3602 11.0229 13.3601 11.0227 13.36 11.0225C13.4859 11.07 13.5641 11.0919 13.5641 11.0741Z" fill="#9A5DFF"/>
</svg>
