<svg width="17" height="17" viewBox="0 0 17 17" fill="none" xmlns="http://www.w3.org/2000/svg">
<path d="M8.50345 0.625C11.9019 0.625 14.5 3.47055 14.5 7.0611L14.4965 8.43108C14.4969 8.66155 14.6459 8.92801 15.0501 9.40374C15.1009 9.4635 15.1487 9.51889 15.2532 9.6396C16.0558 10.5682 16.375 11.1059 16.375 11.9412C16.375 12.317 16.3323 12.6089 16.1542 12.9592C15.7747 13.7057 14.9637 14.125 13.75 14.125L11.7991 14.1255C11.2982 15.8234 10.1592 16.75 8.5 16.75C6.84076 16.75 5.70179 15.8234 5.20086 14.1255L3.25 14.125C2.00112 14.125 1.18152 13.6944 0.818481 12.9222C0.661015 12.5873 0.625 12.3156 0.625 11.9412C0.625 11.1062 0.943565 10.5686 1.74462 9.64012C1.84893 9.51941 1.89664 9.46402 1.94731 9.40426C2.35128 8.92793 2.5 8.66134 2.5 8.43034V7.05921C2.5 3.47178 5.10402 0.625 8.50345 0.625ZM10.2096 14.1256H6.79045C7.12854 14.9074 7.67399 15.25 8.5 15.25C9.32601 15.25 9.87146 14.9074 10.2096 14.1256ZM8.50345 2.125C5.96376 2.125 4 4.27184 4 7.05921V8.43034C4 9.12614 3.7117 9.64292 3.09131 10.3745C3.03631 10.4393 2.9844 10.4996 2.88038 10.6199C2.31034 11.2807 2.125 11.5935 2.125 11.9412C2.125 12.1108 2.13698 12.2011 2.17594 12.284C2.26888 12.4817 2.54168 12.625 3.25 12.625H13.75C14.4357 12.625 14.7147 12.4807 14.8171 12.2794C14.8614 12.1922 14.875 12.0992 14.875 11.9412C14.875 11.5938 14.6893 11.2811 14.1183 10.6205C14.0141 10.5001 13.9621 10.4398 13.907 10.375C13.2854 9.64335 12.9965 9.1265 12.9965 8.43034L13 7.05921C13 4.27006 11.0415 2.125 8.50345 2.125Z" fill="#9A5DFF"/>
</svg>
