<svg width="17" height="13" viewBox="0 0 17 13" fill="none" xmlns="http://www.w3.org/2000/svg">
<path opacity="0.75" fill-rule="evenodd" clip-rule="evenodd" d="M15.0742 2.07563H13.6529C13.4343 2.07563 13.1063 1.85714 12.9969 1.63866L12.4503 0.436975C12.3409 0.218487 12.1223 0 11.7943 0H5.12502C4.90636 0 4.57836 0.218487 4.46903 0.436975L3.92237 1.63866C3.81304 1.85714 3.59437 2.07563 3.26638 2.07563H1.84506C0.970402 2.07563 0.205078 3.05882 0.205078 3.93277V11.3613C0.205078 12.2353 0.970402 13 1.84506 13H14.9649C15.8396 13 16.6049 12.2353 16.6049 11.3613V3.71429C16.7142 2.84034 15.9489 2.07563 15.0742 2.07563ZM8.41021 11C6.1831 11 4.30764 9.17143 4.30764 7C4.30764 4.82857 6.1831 3 8.41021 3C10.6373 3 12.5128 4.82857 12.5128 7C12.5128 9.17143 10.6373 11 8.41021 11ZM5.8461 7C5.8461 5.58696 6.96093 4.5 8.41021 4.5C9.85948 4.5 10.9743 5.58696 10.9743 7C10.9743 8.41304 9.85948 9.5 8.41021 9.5C6.96093 9.5 5.8461 8.41304 5.8461 7Z" fill="#9A5DFF"/>
</svg>
