<svg width="13" height="14" viewBox="0 0 13 14" fill="none" xmlns="http://www.w3.org/2000/svg">
<path d="M3.71165 0C4.15964 0 4.32209 0.0466446 4.48586 0.134234C4.64964 0.221823 4.77818 0.350357 4.86577 0.514135C4.95335 0.677913 5 0.840364 5 1.28835V12.7116C5 13.1596 4.95335 13.3221 4.86577 13.4859C4.77818 13.6496 4.64964 13.7782 4.48586 13.8658C4.32209 13.9534 4.15964 14 3.71165 14H1.78835C1.34036 14 1.17791 13.9534 1.01413 13.8658C0.850357 13.7782 0.721823 13.6496 0.634234 13.4859C0.546645 13.3221 0.5 13.1596 0.5 12.7116V1.28835C0.5 0.840364 0.546645 0.677913 0.634234 0.514135C0.721823 0.350357 0.850357 0.221823 1.01413 0.134234C1.17791 0.0466446 1.34036 0 1.78835 0H3.71165ZM11.7116 0C12.1596 0 12.3221 0.0466446 12.4859 0.134234C12.6496 0.221823 12.7782 0.350357 12.8658 0.514135C12.9534 0.677913 13 0.840364 13 1.28835V12.7116C13 13.1596 12.9534 13.3221 12.8658 13.4859C12.7782 13.6496 12.6496 13.7782 12.4859 13.8658C12.3221 13.9534 12.1596 14 11.7116 14H9.78835C9.34036 14 9.17791 13.9534 9.01414 13.8658C8.85036 13.7782 8.72182 13.6496 8.63423 13.4859C8.54665 13.3221 8.5 13.1596 8.5 12.7116V1.28835C8.5 0.840364 8.54665 0.677913 8.63423 0.514135C8.72182 0.350357 8.85036 0.221823 9.01414 0.134234C9.17791 0.0466446 9.34036 0 9.78835 0H11.7116Z" fill="#3F8AE0"/>
</svg>
