<svg width="13" height="12" viewBox="0 0 13 12" fill="none" xmlns="http://www.w3.org/2000/svg">
<path d="M6.50014 0.285706C6.83545 0.285706 7.10728 0.541543 7.10728 0.857134V5.42856H11.9644C12.2997 5.42856 12.5716 5.6844 12.5716 5.99999C12.5716 6.31558 12.2997 6.57142 11.9644 6.57142H7.10728V11.1428C7.10728 11.4584 6.83545 11.7143 6.50014 11.7143C6.16482 11.7143 5.893 11.4584 5.893 11.1428V6.57142H1.03585C0.700538 6.57142 0.428711 6.31558 0.428711 5.99999C0.428711 5.6844 0.700538 5.42856 1.03585 5.42856H5.893V0.857134C5.893 0.541543 6.16482 0.285706 6.50014 0.285706Z" fill="#9A36D8"/>
</svg>
