<svg width="13" height="13" viewBox="0 0 13 13" fill="none" xmlns="http://www.w3.org/2000/svg">
<path fill-rule="evenodd" clip-rule="evenodd" d="M9.15121 8.16911C9.80009 7.31441 10.1852 6.24848 10.1852 5.09259C10.1852 2.28003 7.90515 0 5.09259 0C2.28003 0 0 2.28003 0 5.09259C0 7.90515 2.28003 10.1852 5.09259 10.1852C6.24848 10.1852 7.31441 9.80009 8.16911 9.15121L11.3145 12.2966C11.5857 12.5678 12.0254 12.5678 12.2966 12.2966C12.5678 12.0254 12.5678 11.5857 12.2966 11.3145L9.15121 8.16911ZM7.97455 7.41911C8.4885 6.78325 8.7963 5.97387 8.7963 5.09259C8.7963 3.04709 7.13809 1.38889 5.09259 1.38889C3.04709 1.38889 1.38889 3.04709 1.38889 5.09259C1.38889 7.13809 3.04709 8.7963 5.09259 8.7963C5.97387 8.7963 6.78325 8.4885 7.41911 7.97455C7.44384 7.84129 7.50773 7.71388 7.61081 7.61081C7.71388 7.50773 7.84129 7.44384 7.97455 7.41911Z" fill="#9A5DFF"/>
</svg>
