<svg width="24" height="23" viewBox="0 0 24 23" fill="none" xmlns="http://www.w3.org/2000/svg">
<path d="M6.61563 13C7.68101 13 8.23917 13.1078 8.82055 13.4187C9.36149 13.708 9.79199 14.1385 10.0813 14.6795C10.3922 15.2608 10.5 15.819 10.5 16.8844V19.1156C10.5 20.181 10.3922 20.7392 10.0813 21.3206C9.79199 21.8615 9.36149 22.292 8.82055 22.5813C8.23917 22.8922 7.68101 23 6.61563 23H4.38437C3.31899 23 2.76083 22.8922 2.17945 22.5813C1.63851 22.292 1.20801 21.8615 0.918711 21.3206C0.607785 20.7392 0.5 20.181 0.5 19.1156V16.8844C0.5 15.819 0.607785 15.2608 0.918711 14.6795C1.20801 14.1385 1.63851 13.708 2.17945 13.4187C2.76083 13.1078 3.31899 13 4.38437 13H6.61563ZM18.6156 13C19.681 13 20.2392 13.1078 20.8206 13.4187C21.3615 13.708 21.792 14.1385 22.0813 14.6795C22.3922 15.2608 22.5 15.819 22.5 16.8844V19.1156C22.5 20.181 22.3922 20.7392 22.0813 21.3206C21.792 21.8615 21.3615 22.292 20.8206 22.5813C20.2392 22.8922 19.681 23 18.6156 23H16.3844C15.319 23 14.7608 22.8922 14.1794 22.5813C13.6385 22.292 13.208 21.8615 12.9187 21.3206C12.6078 20.7392 12.5 20.181 12.5 19.1156V16.8844C12.5 15.819 12.6078 15.2608 12.9187 14.6795C13.208 14.1385 13.6385 13.708 14.1794 13.4187C14.7608 13.1078 15.319 13 16.3844 13H18.6156ZM6.61563 15H4.38437C3.62092 15 3.37468 15.0476 3.12265 15.1823C2.93025 15.2852 2.78523 15.4303 2.68234 15.6227C2.54755 15.8747 2.5 16.1209 2.5 16.8844V19.1156C2.5 19.8791 2.54755 20.1253 2.68234 20.3774C2.78523 20.5698 2.93025 20.7148 3.12265 20.8177C3.37468 20.9525 3.62092 21 4.38437 21H6.61563C7.37908 21 7.62532 20.9525 7.87735 20.8177C8.06975 20.7148 8.21477 20.5698 8.31766 20.3774C8.45245 20.1253 8.5 19.8791 8.5 19.1156V16.8844C8.5 16.1209 8.45245 15.8747 8.31766 15.6227C8.21477 15.4303 8.06975 15.2852 7.87735 15.1823C7.62532 15.0476 7.37908 15 6.61563 15ZM18.6156 15H16.3844C15.6209 15 15.3747 15.0476 15.1226 15.1823C14.9303 15.2852 14.7852 15.4303 14.6823 15.6227C14.5476 15.8747 14.5 16.1209 14.5 16.8844V19.1156C14.5 19.8791 14.5476 20.1253 14.6823 20.3774C14.7852 20.5698 14.9303 20.7148 15.1226 20.8177C15.3747 20.9525 15.6209 21 16.3844 21H18.6156C19.3791 21 19.6253 20.9525 19.8774 20.8177C20.0697 20.7148 20.2148 20.5698 20.3177 20.3774C20.4524 20.1253 20.5 19.8791 20.5 19.1156V16.8844C20.5 16.1209 20.4524 15.8747 20.3177 15.6227C20.2148 15.4303 20.0697 15.2852 19.8774 15.1823C19.6253 15.0476 19.3791 15 18.6156 15ZM18.3915 0.412566C19.0224 0.603807 19.4933 0.922267 20.2467 1.67561L21.8244 3.25335C22.5777 4.00668 22.8962 4.47758 23.0874 5.10853C23.2654 5.69559 23.2654 6.30443 23.0874 6.89149C22.8962 7.52244 22.5777 7.99334 21.8244 8.74668L20.2467 10.3244C19.4933 11.0778 19.0224 11.3962 18.3915 11.5875C17.8044 11.7654 17.1956 11.7654 16.6085 11.5875C15.9776 11.3962 15.5067 11.0778 14.7533 10.3244L13.1756 8.74668C12.4223 7.99334 12.1038 7.52244 11.9126 6.89149C11.7346 6.30443 11.7346 5.69559 11.9126 5.10853C12.1038 4.47758 12.4223 4.00668 13.1756 3.25335L14.7533 1.67561C15.5067 0.922267 15.9776 0.603807 16.6085 0.412566C17.1956 0.23463 17.8044 0.23463 18.3915 0.412566ZM6.61563 1.00001C7.68101 1.00001 8.23917 1.1078 8.82055 1.41872C9.36149 1.70802 9.79199 2.13852 10.0813 2.67946C10.3922 3.26084 10.5 3.819 10.5 4.88438V7.11564C10.5 8.18102 10.3922 8.73918 10.0813 9.32056C9.79199 9.8615 9.36149 10.292 8.82055 10.5813C8.23917 10.8922 7.68101 11 6.61563 11H4.38437C3.31899 11 2.76083 10.8922 2.17945 10.5813C1.63851 10.292 1.20801 9.8615 0.918711 9.32056C0.607785 8.73918 0.5 8.18102 0.5 7.11564V4.88438C0.5 3.819 0.607785 3.26084 0.918711 2.67946C1.20801 2.13852 1.63851 1.70802 2.17945 1.41872C2.76083 1.1078 3.31899 1.00001 4.38437 1.00001H6.61563ZM17.1887 2.32658C16.9151 2.40948 16.7074 2.54998 16.1675 3.08982L14.5898 4.66756C14.05 5.2074 13.9095 5.41514 13.8266 5.68866C13.7633 5.89747 13.7633 6.10255 13.8266 6.31136C13.9095 6.58488 14.05 6.79262 14.5898 7.33246L16.1675 8.9102C16.7074 9.45004 16.9151 9.59054 17.1887 9.67344C17.3975 9.73673 17.6025 9.73673 17.8113 9.67344C18.0849 9.59054 18.2926 9.45004 18.8325 8.9102L20.4102 7.33246C20.95 6.79262 21.0905 6.58488 21.1734 6.31136C21.2367 6.10255 21.2367 5.89747 21.1734 5.68866C21.0905 5.41514 20.95 5.2074 20.4102 4.66756L18.8325 3.08982C18.2926 2.54998 18.0849 2.40948 17.8113 2.32658C17.6025 2.26329 17.3975 2.26329 17.1887 2.32658ZM6.61563 3.00001H4.38437C3.62092 3.00001 3.37468 3.04756 3.12265 3.18235C2.93025 3.28524 2.78523 3.43026 2.68234 3.62266C2.54755 3.87469 2.5 4.12093 2.5 4.88438V7.11564C2.5 7.87909 2.54755 8.12534 2.68234 8.37736C2.78523 8.56976 2.93025 8.71478 3.12265 8.81767C3.37468 8.95246 3.62092 9.00001 4.38437 9.00001H6.61563C7.37908 9.00001 7.62532 8.95246 7.87735 8.81767C8.06975 8.71478 8.21477 8.56976 8.31766 8.37736C8.45245 8.12534 8.5 7.87909 8.5 7.11564V4.88438C8.5 4.12093 8.45245 3.87469 8.31766 3.62266C8.21477 3.43026 8.06975 3.28524 7.87735 3.18235C7.62532 3.04756 7.37908 3.00001 6.61563 3.00001Z" fill="#818C99"/>
</svg>
