<svg width="21" height="20" viewBox="0 0 21 20" fill="none" xmlns="http://www.w3.org/2000/svg">
<path d="M11.4431 0.676321C11.7943 0.732512 12.1265 0.866891 12.4248 1.10553C12.9135 1.49646 13.1462 1.98925 13.326 2.70869C13.3721 2.89286 13.4517 3.10757 13.5513 3.31595C13.7797 3.41306 14.0032 3.521 14.221 3.63934C14.436 3.58622 14.6425 3.51567 14.8074 3.43891C15.9675 2.89886 16.9407 2.92723 17.7376 3.78682C17.805 3.85952 17.8453 3.90769 17.9328 4.01582L18.4498 4.65419C18.5888 4.82588 18.6482 4.9041 18.7359 5.05006C19.3042 5.99588 19.0826 6.87674 18.3643 7.83126C18.2451 7.98963 18.1234 8.19696 18.0216 8.41507C18.0858 8.64716 18.1393 8.8825 18.1818 9.12048C18.3648 9.26706 18.5593 9.39551 18.7311 9.48317C19.3916 9.82026 19.8194 10.1579 20.0904 10.7219C20.2558 11.0663 20.312 11.4202 20.2878 11.775C20.2749 11.9626 20.2547 12.0671 20.2006 12.3012L20.0158 13.1016C19.9618 13.3357 19.9342 13.4385 19.8635 13.6127C19.7297 13.9423 19.5241 14.2357 19.2244 14.4727C18.7336 14.8609 18.2011 14.9768 17.4597 14.9902C17.2721 14.9936 17.048 15.0223 16.825 15.0714C16.6801 15.2717 16.5257 15.465 16.3625 15.6507C16.3653 15.8759 16.3877 16.0972 16.426 16.2783C16.5797 17.0037 16.5866 17.5487 16.3188 18.1142C16.1553 18.4595 15.9156 18.7259 15.6246 18.9304C15.4707 19.0384 15.3767 19.0885 15.1608 19.1938L14.4225 19.5539C14.2066 19.6592 14.1093 19.7025 13.9294 19.7571C13.5891 19.8606 13.2316 19.8854 12.8589 19.8017C12.2483 19.6646 11.8232 19.3237 11.3461 18.7559C11.22 18.6058 11.0477 18.4424 10.8604 18.2954C10.7406 18.3008 10.6205 18.3036 10.5001 18.3036C10.3797 18.3036 10.2595 18.3008 10.1398 18.2954C9.95243 18.4424 9.78012 18.6058 9.65402 18.7559C9.17698 19.3237 8.7518 19.6646 8.14122 19.8017C7.7685 19.8854 7.411 19.8606 7.07071 19.7571C6.89085 19.7025 6.79355 19.6592 6.57762 19.5539L5.83932 19.1938C5.77441 19.1622 5.73415 19.1422 5.68712 19.1177C4.60977 18.5567 4.29394 17.6005 4.57413 16.2783C4.61248 16.0972 4.63487 15.8759 4.63767 15.6507C4.47445 15.465 4.32008 15.2717 4.17513 15.0714C3.95217 15.0223 3.72804 14.9936 3.54048 14.9902C2.79903 14.9768 2.26652 14.8609 1.77569 14.4727C1.47606 14.2357 1.27039 13.9423 1.13664 13.6127C1.06594 13.4385 1.03833 13.3357 0.984289 13.1016L0.799507 12.3012C0.74229 12.0534 0.721211 11.9429 0.710357 11.742C0.69001 11.3656 0.762053 10.9915 0.953143 10.6367C1.23157 10.1197 1.64368 9.80233 2.26908 9.48317C2.44087 9.39551 2.63535 9.26706 2.81833 9.12048C2.86084 8.8825 2.91433 8.64716 2.97855 8.41507C2.87675 8.19696 2.75505 7.98963 2.63587 7.83126C1.91754 6.87674 1.69594 5.99588 2.26425 5.05006C2.35195 4.9041 2.41134 4.82588 2.55037 4.65419L3.06731 4.01582C3.15488 3.90769 3.19513 3.85952 3.26253 3.78682C4.05948 2.92723 5.03266 2.89886 6.19272 3.43891C6.35761 3.51567 6.5641 3.58622 6.77911 3.63934C6.99694 3.521 7.22042 3.41306 7.44883 3.31595C7.54841 3.10757 7.62808 2.89286 7.67412 2.70869C7.85398 1.98925 8.08669 1.49646 8.57535 1.10553C8.87365 0.866891 9.20586 0.732512 9.55706 0.676321C9.70556 0.65256 9.80337 0.645397 9.95956 0.643482L10.9108 0.642853C11.151 0.642853 11.2574 0.64662 11.4431 0.676321ZM10.9812 2.28588L10.0894 2.28571C9.67864 2.28571 9.47328 2.28571 9.26793 3.10714C9.15394 3.56309 8.91341 4.14558 8.58145 4.6439C8.05362 4.81673 7.55719 5.05893 7.10296 5.35973C6.51418 5.30172 5.92003 5.12412 5.49936 4.92828C4.73176 4.57093 4.60252 4.73052 4.34405 5.04971L3.82711 5.68808C3.56864 6.00726 3.4394 6.16686 3.94854 6.84339C4.2351 7.22417 4.54089 7.78795 4.71823 8.368C4.53664 8.8603 4.41613 9.38216 4.36589 9.92439C3.95385 10.3633 3.43689 10.7316 3.01585 10.9465C2.26167 11.3314 2.30787 11.5315 2.40026 11.9317L2.58504 12.732C2.67743 13.1322 2.72363 13.3323 3.5702 13.3476C4.03827 13.3561 4.65691 13.4586 5.21542 13.6683C5.49908 14.1405 5.84423 14.5714 6.23978 14.9502C6.31729 15.5396 6.27798 16.1625 6.1813 16.6188C6.00578 17.4471 6.19036 17.5371 6.5595 17.7172L7.2978 18.0773C7.66695 18.2573 7.85152 18.3474 8.39618 17.6991C8.70159 17.3356 9.17967 16.9126 9.70265 16.6096C9.96369 16.6433 10.2298 16.6607 10.5001 16.6607C10.7703 16.6607 11.0364 16.6433 11.2975 16.6096C11.8205 16.9126 12.2985 17.3356 12.604 17.6991C13.1486 18.3474 13.3332 18.2573 13.7023 18.0773L14.4406 17.7172C14.8098 17.5371 14.9944 17.4471 14.8188 16.6188C14.7222 16.1625 14.6829 15.5396 14.7604 14.9502C15.1559 14.5714 15.5011 14.1405 15.7847 13.6683C16.3432 13.4586 16.9619 13.3561 17.4299 13.3476C18.2765 13.3323 18.3227 13.1322 18.4151 12.732L18.5999 11.9317C18.6923 11.5315 18.7385 11.3314 17.9843 10.9465C17.5633 10.7316 17.0463 10.3633 16.6342 9.92439C16.584 9.38216 16.4635 8.8603 16.2819 8.368C16.4592 7.78795 16.765 7.22417 17.0516 6.84339C17.5607 6.16686 17.4315 6.00726 17.173 5.68808L16.6561 5.04971C16.3976 4.73052 16.2684 4.57093 15.5008 4.92828C15.0801 5.12412 14.486 5.30172 13.8972 5.35973C13.4429 5.05893 12.9465 4.81673 12.4187 4.6439C12.0867 4.14558 11.8462 3.56309 11.7322 3.10714C11.5389 2.33403 11.3457 2.28855 10.9812 2.28588ZM10.5001 6.80357C12.5415 6.80357 14.1965 8.45851 14.1965 10.5C14.1965 12.5415 12.5415 14.1964 10.5001 14.1964C8.45859 14.1964 6.80364 12.5415 6.80364 10.5C6.80364 8.45851 8.45859 6.80357 10.5001 6.80357ZM10.5001 8.44642C9.36591 8.44642 8.4465 9.36584 8.4465 10.5C8.4465 11.6342 9.36591 12.5536 10.5001 12.5536C11.6342 12.5536 12.5536 11.6342 12.5536 10.5C12.5536 9.36584 11.6342 8.44642 10.5001 8.44642Z" fill="#818C99"/>
</svg>
