<svg width="22" height="22" viewBox="0 0 22 22" fill="none" xmlns="http://www.w3.org/2000/svg">
<path fill-rule="evenodd" clip-rule="evenodd" d="M4.7902 8.03676C5.05718 6.70385 6.44075 5.92493 7.73141 6.38094C9.60318 7.04225 11.3042 8.0585 12.7524 9.34738C13.7492 10.2345 13.7492 11.7692 12.7524 12.6563C11.3074 13.9424 9.61061 14.957 7.74368 15.6184C6.45592 16.0746 5.07369 15.3009 4.80192 13.9716C4.60384 13.0027 4.5 12.0006 4.5 10.9752C4.5 9.97028 4.59974 8.98764 4.7902 8.03676ZM6.75125 8.42955C6.776 8.306 6.90673 8.21073 7.06516 8.2667C8.68883 8.84036 10.1653 9.72224 11.4228 10.8414C11.4809 10.8932 11.5 10.9485 11.5 11.0019C11.5 11.0552 11.4809 11.1105 11.4228 11.1623C10.168 12.279 8.69528 13.1595 7.0758 13.7332C6.91765 13.7893 6.78663 13.6944 6.76139 13.571C6.5901 12.7331 6.5 11.8652 6.5 10.9752C6.5 10.1029 6.58655 9.25185 6.75125 8.42955Z" fill="#818C99"/>
<path fill-rule="evenodd" clip-rule="evenodd" d="M13.0438 1.61446e-07C14.4068 -7.60602e-06 15.4908 -1.37836e-05 16.3654 0.0714427C17.261 0.144616 18.0247 0.297677 18.7239 0.653962C19.8529 1.2292 20.7708 2.14709 21.346 3.27606C21.7023 3.97531 21.8554 4.73898 21.9286 5.63458C22 6.50914 22 7.59322 22 8.95622V13.0439C22 14.4069 22 15.4909 21.9286 16.3654C21.8554 17.261 21.7023 18.0247 21.346 18.7239C20.7708 19.8529 19.8529 20.7708 18.7239 21.346C18.0247 21.7023 17.261 21.8554 16.3654 21.9286C15.4909 22 14.4068 22 13.0438 22H8.95613C7.59313 22 6.50914 22 5.63458 21.9286C4.73898 21.8554 3.97531 21.7023 3.27606 21.346C2.14709 20.7708 1.2292 19.8529 0.653962 18.7239C0.297677 18.0247 0.144616 17.261 0.0714427 16.3654C-1.37836e-05 15.4908 -7.60602e-06 14.4068 1.61446e-07 13.0438V8.95623C-7.60602e-06 7.5932 -1.37836e-05 6.50916 0.0714427 5.63458C0.144616 4.73898 0.297677 3.97531 0.653962 3.27606C1.2292 2.14709 2.14709 1.2292 3.27606 0.653962C3.97531 0.297677 4.73898 0.144616 5.63458 0.0714427C6.50916 -1.37836e-05 7.59319 -7.60602e-06 8.95623 1.61446e-07H13.0438ZM17.816 19.564C17.5066 19.7217 17.1268 19.831 16.5601 19.8994C16.8657 19.542 17.13 19.1479 17.346 18.7239C17.7023 18.0247 17.8554 17.261 17.9286 16.3654C18 15.4909 18 14.4068 18 13.0438V8.95613C18 7.59313 18 6.50914 17.9286 5.63458C17.8554 4.73898 17.7023 3.97531 17.346 3.27606C17.13 2.85215 16.8657 2.458 16.5601 2.10057C17.1268 2.16905 17.5066 2.27834 17.816 2.43597C18.5686 2.81947 19.1805 3.43139 19.564 4.18404C19.7527 4.55435 19.8721 5.02552 19.9352 5.79744C19.9992 6.58104 20 7.58337 20 9V13C20 14.4166 19.9992 15.419 19.9352 16.2026C19.8721 16.9745 19.7527 17.4457 19.564 17.816C19.1805 18.5686 18.5686 19.1805 17.816 19.564ZM5.79744 2.0648C6.58104 2.00078 7.58337 2 9 2C10.4166 2 11.419 2.00078 12.2026 2.0648C12.9745 2.12787 13.4457 2.24729 13.816 2.43597C14.5686 2.81947 15.1805 3.43139 15.564 4.18404C15.7527 4.55435 15.8721 5.02552 15.9352 5.79744C15.9992 6.58104 16 7.58337 16 9V13C16 14.4166 15.9992 15.419 15.9352 16.2026C15.8721 16.9745 15.7527 17.4457 15.564 17.816C15.1805 18.5686 14.5686 19.1805 13.816 19.564C13.4457 19.7527 12.9745 19.8721 12.2026 19.9352C11.419 19.9992 10.4166 20 9 20C7.58337 20 6.58104 19.9992 5.79744 19.9352C5.02552 19.8721 4.55435 19.7527 4.18404 19.564C3.43139 19.1805 2.81947 18.5686 2.43597 17.816C2.24729 17.4457 2.12787 16.9745 2.0648 16.2026C2.00078 15.419 2 14.4166 2 13V9C2 7.58337 2.00078 6.58104 2.0648 5.79744C2.12787 5.02552 2.24729 4.55435 2.43597 4.18404C2.81947 3.43139 3.43139 2.81947 4.18404 2.43597C4.55435 2.24729 5.02552 2.12787 5.79744 2.0648Z" fill="#818C99"/>
</svg>
