<svg width="10" height="10" viewBox="0 0 10 10" fill="none" xmlns="http://www.w3.org/2000/svg">
<path fill-rule="evenodd" clip-rule="evenodd" d="M5 5.1656e-07C3.67392 4.00631e-07 2.40215 0.526784 1.46447 1.46447C0.526784 2.40215 -4.00631e-07 3.67392 -5.1656e-07 5C-6.3249e-07 6.32608 0.526783 7.59785 1.46447 8.53553C2.40215 9.47322 3.67392 10 5 10C6.32608 10 7.59785 9.47322 8.53553 8.53553C9.47322 7.59785 10 6.32608 10 5C10 3.67392 9.47322 2.40215 8.53553 1.46447C7.59785 0.526785 6.32608 6.3249e-07 5 5.1656e-07ZM5 8.33333C4.83424 8.33333 4.67527 8.26749 4.55806 8.15027C4.44085 8.03306 4.375 7.87409 4.375 7.70833L4.375 4.75C4.375 4.58424 4.44085 4.42527 4.55806 4.30806C4.67527 4.19085 4.83424 4.125 5 4.125C5.16576 4.125 5.32473 4.19085 5.44194 4.30806C5.55915 4.42527 5.625 4.58424 5.625 4.75L5.625 7.70833C5.625 7.87409 5.55915 8.03306 5.44194 8.15027C5.32473 8.26749 5.16576 8.33333 5 8.33333ZM4.24833 2.5C4.24833 2.30109 4.32735 2.11032 4.468 1.96967C4.60866 1.82902 4.79942 1.75 4.99833 1.75C5.19725 1.75 5.38801 1.82902 5.52866 1.96967C5.66932 2.11032 5.74833 2.30109 5.74833 2.5C5.74833 2.69891 5.66932 2.88968 5.52866 3.03033C5.38801 3.17098 5.19725 3.25 4.99833 3.25C4.79942 3.25 4.60866 3.17098 4.468 3.03033C4.32735 2.88968 4.24833 2.69891 4.24833 2.5Z" fill="#9A36D8"/>
</svg>
